<?xml version="1.0" encoding="utf-8"?>
<!-- Generator: Adobe Illustrator 24.0.0, SVG Export Plug-In . SVG Version: 6.00 Build 0)  -->
<svg version="1.1" id="Capa_1" xmlns="http://www.w3.org/2000/svg" xmlns:xlink="http://www.w3.org/1999/xlink" x="0px" y="0px"
	 viewBox="0 0 24 24" style="enable-background:new 0 0 24 24;" xml:space="preserve">
<style type="text/css">
	.st0{fill:#0097D9;}
	.st1{fill:#00A6EE;}
</style>
<g>
	<g>
		<path class="st0" d="M23,14.1c-0.1,0.1-0.3,0.1-0.4,0c0,0,0-0.1,0-0.1c-1.7-0.2-3.8-0.2-6.3,0.3c0.1,0.2,0.1,0.3,0.1,0.5l-0.3,0.3
			l0.1,0.1c0.1-0.1,0.2-0.2,0.4-0.2l0,0.2c0.6-0.1,0.4,0.1,0.8,0.3l0.7,0c0.1,0,0.6,0.5,0.7,0.6c0.2,0.5-0.3,0.9-0.7,1.2
			c1.4,0,2.9,0,4.5,0.3c0.6-1.1,1-2.3,1.3-3.5C23.6,14.2,23.3,14.2,23,14.1z"/>
		<polygon class="st0" points="20.7,3.6 20.8,3.6 20.8,3.6 20.8,3.6 20.6,3.5 20.6,3.5 		"/>
		<path class="st0" d="M8.7,1.2c-0.2,0-0.3,0-0.4,0.1l0.3,0.2c0.3,0,0.4-0.1,0.6-0.3c0.1,0.1,0.1,0.1,0.1,0.2l0.3-0.1l0-0.1
			C9.5,1,9.4,1,9.3,0.9l0-0.1l0.2-0.1c0.2,0.2,0.8,0.8,1.1,0.3L10.5,1l-0.2,0l0-0.2l0.2-0.1l0.1,0.2c0.8-0.3,1.2,0,1.9,0.4
			c0.2,0.1,0.4,0,0.6,0.2l0,0.1c-0.2,0-0.4-0.1-0.6-0.1v0l0,0.1c0.2,0,0.3,0.1,0.3,0.2h-0.1c-0.1,0.1-0.2,0.1-0.4,0.1l-0.8-0.3
			l0-0.1L12,1.3l0-0.1c-0.4-0.1-0.6-0.3-1-0.1l-0.1,0.3C9.9,1.5,9.3,1.9,8.7,2.3l0,0.2c0.1,0.1,0.2,0.1,0.2,0.2
			c0.5,0,0.9,0.1,1.3,0.3c0,0.1,0,0.2,0,0.3c0.3-0.2,0.7-0.4,1-0.6l0-0.1l-0.2-0.2c0-0.2,0.1-0.3,0.1-0.5c0.4-0.1,0.7,0.1,1.1,0.1
			l0,0.1c0.7-0.4,1.4-0.7,2.2-1.1l0-0.1L14.4,1L14.1,1c0-0.2,0-0.1,0-0.2l-0.2,0c-0.2-0.1-0.3-0.3-0.5-0.3c-0.3-0.1-0.9,0.1-1-0.1
			l0.2-0.1l-0.1-0.1c-0.5,0-1.3,0.4-1.5,0.4c-0.1-0.1-0.3-0.2-0.4-0.3l0.1-0.1c0.4,0,0.7,0,1.1-0.2l-0.4,0l-1,0.1L8.7,0.4L8.6,0.5
			l0.1,0l0,0.1c-0.1,0-0.2,0-0.2,0L8.2,0.9c0.3,0,0.6,0.1,0.6,0.1L8.7,1.2z M10.2,1.8l0.1-0.3c0.2,0,0.3,0,0.4,0.2L10.2,1.8z
			 M11.5,1.6L11.5,1.6l-0.2,0l0-0.1C11.4,1.5,11.4,1.6,11.5,1.6C11.4,1.6,11.5,1.6,11.5,1.6L11.5,1.6z M9.9,0.7
			C10,0.6,9.9,0.7,9.9,0.7l0.2-0.1l0,0.2L9.9,0.7L9.9,0.7z"/>
		<path class="st0" d="M11.9,13l0.2,0l0-0.1c-0.1-0.1,0-0.1-0.2-0.2C11.8,12.8,11.8,12.9,11.9,13z"/>
		<path class="st0" d="M7,10.9c0.3,0,0.6-0.1,0.8-0.2c0-0.2,0.1-0.4,0.2-0.5c0.2,0,0.4-0.1,0.6,0c0,0.1,0,0.2,0,0.3
			c-0.1,0.3-0.2,0.7-0.3,1l0,0l0.9,0l0.3,0.3c0,0.1,0,0.2,0,0.3c-0.1,0.5,0,0.7,0.4,1.1c0.3,0,0.4-0.1,0.7-0.2l0.4,0.3h0.1
			c0.3-0.4,0.6-0.8,1.2-1l0,0.1c-0.1,0.1-0.1,0.1-0.1,0.3l0,0c0.2-0.1,0.4-0.2,0.6-0.1c0.4,0.3,0.8,0.2,1.3,0.1c0,0,0.1,0.1,0.1,0.1
			c0.1,0.1,0.1,0.2,0.2,0.3l0.2-0.1c2.4-0.7,5-1.1,7.8-1.1l0.1-0.7L22,10.2c0.1-0.4,0.1-0.8,0.2-1.2l0.3-0.4l-0.1-0.4l0.1-0.5
			c-2.7,0.1-6.1,0.8-10,2.6c-0.4-0.5-0.8-1-1.3-1.5c3-1.5,6.5-2.7,10.4-3c0,0,0-0.1,0-0.1l0-0.1c0.2,0,0.3,0,0.4,0l0-0.1
			c-0.1-0.1-0.6-0.7-0.6-0.7c-0.1-0.1,0-0.3,0-0.5c-0.1,0.1-0.2,0.1-0.3,0l-0.3-0.3c-0.2,0.1-0.2,0.1-0.3,0
			c-0.1-0.3-0.2-0.5-0.4-0.8c0-0.2,0.1-0.1,0-0.2l-0.1-0.1l0-0.3c-0.4-0.3-0.8-0.7-1.3-1c-0.1,0-0.1-0.1-0.2-0.1l0,0.1l0,0l-0.2,0
			c-1.2,0.3-2.4,0.8-3.7,1.3c0,0,0.1,0.1,0.1,0.1c-0.1,0.2,0,0.4,0.1,0.5c0.3,0,0.4,0,0.4,0.2l-0.1,0.1c-0.3,0-0.7,0-0.8-0.1
			c0.1-0.2,0.2-0.4,0.2-0.6l-0.1,0l-0.4,0.2l-0.4,0c-0.1,0.1-0.3,0.1-0.4,0.2c0,0,0.1,0,0.1,0c-0.1,0.3-0.1,0.3,0.1,0.5
			c0.3,0.1,0.4,0,0.7,0v0l-0.2,0.2c-0.3,0.1-0.5,0.2-0.7,0.3c-0.1,0-0.1,0-0.1,0c0,0,0,0-0.1-0.1l0.1-0.1l0.1-0.1v0l-0.1,0
			c-0.3,0.1-0.9,0.2-1,0.5c-0.1,0.1,0,0.3-0.2,0.3c-0.6,0.3-0.4,0.3-0.9,0.7l-0.2-0.1l-0.1,0.2L11,6.7c-0.2,0.3-0.9,0.6-1.1,1
			c0,0.1-0.1,0.1-0.1,0.2C9.7,8.3,10.1,8.6,10,9.1L9.9,9.2L9.7,9C9.6,8.7,9.5,8.3,9.3,8.1C8.9,8.1,8.6,7.9,8.1,8C8,8.1,8,8.1,8,8.2
			C7.4,8.2,6.9,8.1,6.6,8.6C6.5,8.7,6.5,8.9,6.6,9C6.3,9.9,6.3,10.4,7,10.9z M13,10.8L13,10.8l0.1,0l0.1,0.1l0,0.1
			C13,10.9,13,10.9,13,10.8L13,10.8z M10.5,10.9L10.5,10.9l0.2-0.1c0,0.1,0,0.1-0.1,0.2L10.5,10.9z M12.1,10.5
			c0.1,0,0.3,0.1,0.4,0.1c0,0.1,0,0.1-0.1,0.2c-0.3-0.1-0.6,0.1-0.7-0.1c0-0.1-0.1-0.1-0.1-0.3C11.8,10.5,12,10.5,12.1,10.5z
			 M11.2,10.3L11.2,10.3l-0.5,0.1C10.4,10,9.8,9.8,9.3,9.9c0.1-0.1,0.3-0.2,0.4-0.2C10.2,9.7,10.9,10.1,11.2,10.3z"/>
		<path class="st0" d="M18.4,1.7C18.4,1.7,18.4,1.7,18.4,1.7L18.4,1.7L18.4,1.7z"/>
		<path class="st0" d="M15.7,19.4c0,0.1,0,0.3,0,0.4l-0.1,0c-0.2,0.1-0.2,0.3-0.3,0.5c-0.2,0.3-0.8,0.7-1,0.8
			c-0.4,0.3-1.1,0.4-1.4,0.8c-0.3,0-0.6,0.1-0.8,0.1c-0.1-0.6,0-1.3,0.1-2c0-0.1,0-0.2,0.1-0.4c0-0.2,0.1-0.5,0-0.7
			c-0.1-0.2-0.3-0.3-0.6-0.4c-0.1,0-0.2-0.1-0.3-0.2c-0.1-0.1-0.9-1.3-1.2-1.9c-0.1-0.2-0.2-0.3-0.2-0.4c0.1-0.1,0.2-0.2,0.2-0.3
			c-0.6-0.4,0.4-1.1,0.5-1.4c0,0,0,0,0-0.1c0.1-0.5-0.2-0.9-0.4-1.2c-0.3,0-0.3,0.1-0.4,0.3C9.7,13.4,9,13,8.9,12.9
			c-0.1-0.1-0.2-0.3-0.2-0.4c-0.1-0.1-0.1-0.3-0.3-0.4c-0.6,0.1-0.9-0.4-1.3-0.7c0,0-0.1,0-0.1,0c-0.6,0.4-1.6-0.4-1.9-0.8
			c0-0.3,0-0.6-0.1-0.8C4.7,9.3,4.4,8.9,4.2,8.5c0-0.1-0.1-0.2-0.1-0.3c0-0.1,0-0.3-0.1-0.4h0l-0.2,0c0,0.2,0,0.4,0.1,0.5
			C4,8.7,4.1,8.9,4.1,9.1L4,9.1L3.8,8.8c0-0.1,0-0.2,0-0.2c0-0.8-0.6-1.4-0.5-2.3c0.1-0.4,0.6-1.1,0.8-1.6l0.2-0.2l-0.1,0
			C3.9,4.3,3.5,4.2,3,4.1c-1.2,1.4-2.1,3.1-2.6,5L0.4,9.2C0.1,10.1,0,11,0,11.9c0,0.3,0,0.6,0,0.9l0.1-0.1c0,0.6,0.1,1.1,0.2,1.6
			l-0.1,0.1C0.5,15.2,0.7,16,1,16.7l0.1-0.1c0.2,0.4,0.4,0.8,0.6,1.2L1.6,18C2,18.5,2.3,19,2.7,19.5l0,0c0.3,0.4,0.6,0.7,0.9,1l0,0
			c0.4,0.4,0.8,0.8,1.3,1.1l0,0c0.5,0.3,1,0.7,1.5,0.9l0,0c0.5,0.2,0.9,0.5,1.4,0.6l0,0c0.4,0.2,0.8,0.3,1.3,0.4l0.1,0
			c0.1,0,0.2,0,0.3,0.1c0.9,0.2,1.7,0.3,2.7,0.3c1.1,0,2.2-0.2,3.3-0.5l0-0.1c0.1-0.5,0.2-1.1,0.2-1.6c0.9,0,1.8,0.1,2.8,0.2
			c1-0.6,1.8-1.3,2.6-2.2c-1.1-0.3-2.5-0.6-4.3-0.6C16.4,19.4,16.1,19.4,15.7,19.4z M4.1,9.2l0.2,0.4l0,0.1l-0.1,0L4,9.4L4.1,9.2z"
			/>
	</g>
	<g>
		<path class="st1" d="M4.2,4.7c0-0.1,0.1-0.1,0.1-0.2c0.1-0.1,0.1-0.2,0.1-0.2c-0.2,0-0.2,0-0.3,0.1l0.6-1.4L4.6,2.9l0,0l0-0.3v0
			l0.1-0.1C2.5,4.2,1,6.5,0.4,9.2l0.1-0.1C1.7,7.4,3,6,4.2,4.7z"/>
		<path class="st1" d="M7.8,0.9H7.6C7.7,0.9,7.7,0.9,7.8,0.9z"/>
		<polygon class="st1" points="8.6,0.5 8.7,0.4 8.5,0.5 8.6,0.5 		"/>
		<path class="st1" d="M8.2,0.9l0.3-0.2c-0.2,0-0.3,0-0.6,0.1v0l0,0C8,0.8,8.1,0.8,8.2,0.9z"/>
		<path class="st1" d="M22.5,6.2c0,0.3,0.2,0.5,0.1,0.8l-0.1,0.1h-0.1c-0.3-0.3-0.7-0.8-0.8-1.3c-3.9,0.3-7.4,1.5-10.4,3
			c-0.5,0.3-1,0.5-1.5,0.8c0.6,0,1.2,0.4,1.6,0.7l-0.1,0.1l-0.4,0C10.4,10,9.8,9.8,9.3,9.9c-0.3,0.2-0.5,0.3-0.8,0.5
			c-0.1,0.3-0.2,0.7-0.3,1l0,0l0.9,0l0.3,0.3c0,0.1,0,0.2,0,0.3c0.8-0.5,1.6-0.9,2.4-1.3c0-0.1-0.1-0.1-0.1-0.3c0.2,0,0.4,0,0.5,0.1
			l0.3-0.2c3.9-1.8,7.3-2.5,10-2.6l0-0.4c0.1,0,0.2,0,0.2,0c0,0,0.1,0,0.1-0.1c0-0.2,0.1-0.2,0.2-0.3L22.5,6.2L22.5,6.2z M10.6,11
			l-0.1-0.1l0.1-0.1l0.1,0C10.7,10.9,10.7,10.9,10.6,11z"/>
		<path class="st1" d="M12.4,2.4l0.3,0.1c0.1-0.1,0.3-0.2,0.5-0.2l0.5,0.6c0.3,0.2,0.7,0.2,0.9,0.5c1.3-0.6,2.5-1,3.7-1.3
			c-0.2,0-0.3-0.1-0.5-0.2l0.1-0.1c0.3,0,0.4,0,0.5,0.1c-0.5-0.3-1.1-0.6-1.7-0.9C16.8,1,17.1,1,16.9,1.3c-0.3,0-0.4,0.2-0.6,0.2
			l-0.3,0c-0.2,0.2,0.1,0.5-0.1,0.7c-0.7-0.2-1.2-0.5-1.6-1l0-0.1c0.1,0,0.1,0,0.1-0.1c-0.7,0.3-1.5,0.7-2.2,1.1
			C12.3,2.3,12.3,2.3,12.4,2.4z"/>
		<path class="st1" d="M10.5,3.7l0.3-0.2c0-0.2,0-0.4,0-0.5c0.2,0,0.3-0.1,0.4-0.2l0,0c-0.3,0.2-0.7,0.4-1,0.6
			C10.3,3.5,10.4,3.6,10.5,3.7z"/>
		<path class="st1" d="M18.2,17.5c-0.1,0.1-0.3,0.2-0.3,0.3c-0.3,0.3-0.3,0.8-0.6,1.2c-0.2,0.2-0.3,0.3-0.5,0.4
			c1.8,0,3.2,0.2,4.3,0.6c0.6-0.7,1.1-1.4,1.5-2.2C21.1,17.5,19.6,17.5,18.2,17.5z"/>
		<path class="st1" d="M23.6,13.9l-0.1,0c-0.1,0.1-0.2,0.2-0.4,0.3c0.3,0,0.6,0.1,0.9,0.1l0.1-0.5C23.9,13.8,23.6,13.9,23.6,13.9z"
			/>
		<path class="st1" d="M22,11.9c-2.8-0.1-5.4,0.3-7.8,1.1l0,0.1c0.5,0,0.5,0.4,0.8,0.6l0.5,0c0.4,0,0.6,0.3,0.8,0.7
			c2.5-0.5,4.6-0.5,6.3-0.3C22.5,13.4,22.1,12.8,22,11.9L22,11.9z"/>
		<path class="st1" d="M8.1,1.5l0-0.2c-0.2,0-0.3,0-0.3,0c0,0,0,0,0,0l0-0.2L7.4,1L6.8,1.3v0c0.3,0,0.5,0.1,0.7,0.1
			C7.7,1.5,7.9,1.5,8.1,1.5z"/>
		<path class="st1" d="M8.3,12.1c-0.6,0.1-0.9-0.4-1.3-0.7c-3,2.1-5.1,4.3-5.9,5.3L1,16.7c0.2,0.4,0.4,0.8,0.6,1.2l0.1-0.1
			c2.4-2.3,4.7-4.1,6.9-5.5C8.6,12.3,8.5,12.2,8.3,12.1z"/>
		<path class="st1" d="M12.9,22c-0.1,0.1-0.2,0.2-0.2,0.3l-0.3,0.2l-0.3-0.2c0-0.1,0-0.1,0-0.2c-1.8,0.3-3.2,0.7-4.2,1.1l0,0
			c0.4,0.2,0.8,0.3,1.3,0.4l0.1,0c0.1,0,0.2,0,0.3,0.1c0.8,0.2,1.7,0.3,2.5,0.3c1.2,0,2.3-0.2,3.4-0.5c1.1-0.3,2.1-0.8,3-1.4
			c-1-0.1-1.9-0.2-2.8-0.2C14.7,21.9,13.8,21.9,12.9,22z"/>
		<path class="st1" d="M4.9,9.7C4.7,9.3,4.4,8.9,4.2,8.5c0-0.1-0.1-0.2-0.1-0.3L3.9,8.4C4,8.7,4.1,8.9,4.1,9.1L4,9.1L3.8,8.8
			c0-0.1,0-0.2,0-0.2c-1.6,1.6-2.8,3.1-3.7,4.2l-0.1,0.1c0,0.5,0.1,1.1,0.2,1.6l0.1-0.1l0.4-0.4C2.1,12.3,3.5,11,4.9,9.7z M4.1,9.2
			l0.2,0.4l0,0.1l-0.1,0L4,9.4L4.1,9.2z"/>
		<path class="st1" d="M12.3,19.7c0-0.2,0.1-0.5,0-0.7c-0.1-0.2-0.3-0.3-0.6-0.4c-3,0.9-5.4,2.2-6.8,3.1l0,0c0.5,0.3,1,0.7,1.5,0.9
			l0,0c2.1-1.2,4-2,5.8-2.5C12.3,20,12.3,19.8,12.3,19.7z"/>
		<path class="st1" d="M10,16.1c0.1-0.1,0.2-0.2,0.2-0.3c-0.6-0.4,0.4-1.1,0.5-1.4c0,0,0,0,0-0.1c-3.8,1.7-6.6,4-8,5.2l0,0
			c0.3,0.4,0.6,0.7,0.9,1l0,0c2.3-1.7,4.5-3,6.5-4C10.1,16.3,10.1,16.2,10,16.1z"/>
	</g>
</g>
</svg>
